<mxfile host="app.diagrams.net" agent="Mozilla/5.0 (Windows NT 10.0; Win64; x64) AppleWebKit/537.36 (KHTML, like Gecko) Chrome/130.0.0.0 Safari/537.36" version="24.8.3" pages="3">
  <diagram id="C5RBs43oDa-KdzZeNtuy" name="Page-1">
    <mxGraphModel dx="2867" dy="1238" grid="1" gridSize="10" guides="1" tooltips="1" connect="1" arrows="1" fold="1" page="1" pageScale="1" pageWidth="827" pageHeight="1169" math="0" shadow="0">
      <root>
        <mxCell id="WIyWlLk6GJQsqaUBKTNV-0" />
        <mxCell id="WIyWlLk6GJQsqaUBKTNV-1" parent="WIyWlLk6GJQsqaUBKTNV-0" />
        <mxCell id="tvA-CXUHTDXtTp5dISmv-0" style="edgeStyle=orthogonalEdgeStyle;rounded=0;orthogonalLoop=1;jettySize=auto;html=1;exitX=0.5;exitY=1;exitDx=0;exitDy=0;entryX=0.5;entryY=0;entryDx=0;entryDy=0;" edge="1" parent="WIyWlLk6GJQsqaUBKTNV-1" source="tvA-CXUHTDXtTp5dISmv-1" target="tvA-CXUHTDXtTp5dISmv-3">
          <mxGeometry relative="1" as="geometry" />
        </mxCell>
        <mxCell id="tvA-CXUHTDXtTp5dISmv-1" value="&lt;font face=&quot;Times New Roman&quot;&gt;&lt;span style=&quot;font-size: 14px;&quot;&gt;BMRcalc (int age, char gender, double weight, double height)&lt;/span&gt;&lt;/font&gt;" style="ellipse;whiteSpace=wrap;html=1;" vertex="1" parent="WIyWlLk6GJQsqaUBKTNV-1">
          <mxGeometry x="60" y="40" width="210" height="80" as="geometry" />
        </mxCell>
        <mxCell id="tvA-CXUHTDXtTp5dISmv-2" style="edgeStyle=orthogonalEdgeStyle;rounded=0;orthogonalLoop=1;jettySize=auto;html=1;exitX=0.5;exitY=1;exitDx=0;exitDy=0;entryX=0.5;entryY=0;entryDx=0;entryDy=0;" edge="1" parent="WIyWlLk6GJQsqaUBKTNV-1" source="tvA-CXUHTDXtTp5dISmv-3" target="tvA-CXUHTDXtTp5dISmv-6">
          <mxGeometry relative="1" as="geometry" />
        </mxCell>
        <mxCell id="tvA-CXUHTDXtTp5dISmv-3" value="double BMR" style="rounded=0;whiteSpace=wrap;html=1;" vertex="1" parent="WIyWlLk6GJQsqaUBKTNV-1">
          <mxGeometry x="105" y="160" width="120" height="40" as="geometry" />
        </mxCell>
        <mxCell id="tvA-CXUHTDXtTp5dISmv-4" style="edgeStyle=orthogonalEdgeStyle;rounded=0;orthogonalLoop=1;jettySize=auto;html=1;exitX=0.5;exitY=1;exitDx=0;exitDy=0;entryX=0.5;entryY=0;entryDx=0;entryDy=0;" edge="1" parent="WIyWlLk6GJQsqaUBKTNV-1" source="tvA-CXUHTDXtTp5dISmv-6" target="tvA-CXUHTDXtTp5dISmv-8">
          <mxGeometry relative="1" as="geometry" />
        </mxCell>
        <mxCell id="tvA-CXUHTDXtTp5dISmv-15" style="edgeStyle=orthogonalEdgeStyle;rounded=0;orthogonalLoop=1;jettySize=auto;html=1;exitX=1;exitY=0.5;exitDx=0;exitDy=0;entryX=0;entryY=0.5;entryDx=0;entryDy=0;" edge="1" parent="WIyWlLk6GJQsqaUBKTNV-1" source="tvA-CXUHTDXtTp5dISmv-6" target="tvA-CXUHTDXtTp5dISmv-14">
          <mxGeometry relative="1" as="geometry" />
        </mxCell>
        <mxCell id="tvA-CXUHTDXtTp5dISmv-6" value="gender == &#39;M&#39; || gender == &#39;m&#39;" style="rhombus;whiteSpace=wrap;html=1;" vertex="1" parent="WIyWlLk6GJQsqaUBKTNV-1">
          <mxGeometry x="112.5" y="240" width="105" height="80" as="geometry" />
        </mxCell>
        <mxCell id="tvA-CXUHTDXtTp5dISmv-8" value="BMR = (10*weight) + (6.25*height) - (5*age)" style="rounded=0;whiteSpace=wrap;html=1;" vertex="1" parent="WIyWlLk6GJQsqaUBKTNV-1">
          <mxGeometry x="85" y="360" width="160" height="60" as="geometry" />
        </mxCell>
        <mxCell id="tvA-CXUHTDXtTp5dISmv-17" style="edgeStyle=orthogonalEdgeStyle;rounded=0;orthogonalLoop=1;jettySize=auto;html=1;exitX=0.5;exitY=1;exitDx=0;exitDy=0;entryX=0.5;entryY=0;entryDx=0;entryDy=0;" edge="1" parent="WIyWlLk6GJQsqaUBKTNV-1" source="tvA-CXUHTDXtTp5dISmv-14" target="tvA-CXUHTDXtTp5dISmv-16">
          <mxGeometry relative="1" as="geometry" />
        </mxCell>
        <mxCell id="tvA-CXUHTDXtTp5dISmv-14" value="gender == &#39;F&#39; || gender == &#39;f&#39;" style="rhombus;whiteSpace=wrap;html=1;" vertex="1" parent="WIyWlLk6GJQsqaUBKTNV-1">
          <mxGeometry x="340" y="240" width="105" height="80" as="geometry" />
        </mxCell>
        <mxCell id="tvA-CXUHTDXtTp5dISmv-24" style="edgeStyle=orthogonalEdgeStyle;rounded=0;orthogonalLoop=1;jettySize=auto;html=1;exitX=0.5;exitY=1;exitDx=0;exitDy=0;" edge="1" parent="WIyWlLk6GJQsqaUBKTNV-1" source="tvA-CXUHTDXtTp5dISmv-16">
          <mxGeometry relative="1" as="geometry">
            <mxPoint x="393" y="460" as="targetPoint" />
            <Array as="points">
              <mxPoint x="393" y="440" />
              <mxPoint x="393" y="440" />
            </Array>
          </mxGeometry>
        </mxCell>
        <mxCell id="tvA-CXUHTDXtTp5dISmv-16" value="BMR = (10*weight) + (6.25*height) - (5*age) - 161" style="rounded=0;whiteSpace=wrap;html=1;" vertex="1" parent="WIyWlLk6GJQsqaUBKTNV-1">
          <mxGeometry x="312.5" y="360" width="160" height="60" as="geometry" />
        </mxCell>
        <mxCell id="tvA-CXUHTDXtTp5dISmv-23" style="edgeStyle=orthogonalEdgeStyle;rounded=0;orthogonalLoop=1;jettySize=auto;html=1;exitX=0.5;exitY=1;exitDx=0;exitDy=0;" edge="1" parent="WIyWlLk6GJQsqaUBKTNV-1" source="tvA-CXUHTDXtTp5dISmv-18">
          <mxGeometry relative="1" as="geometry">
            <mxPoint x="630" y="460" as="targetPoint" />
          </mxGeometry>
        </mxCell>
        <mxCell id="tvA-CXUHTDXtTp5dISmv-18" value="Print &quot;INVALID&quot;" style="shape=parallelogram;perimeter=parallelogramPerimeter;whiteSpace=wrap;html=1;fixedSize=1;" vertex="1" parent="WIyWlLk6GJQsqaUBKTNV-1">
          <mxGeometry x="560" y="360" width="140" height="60" as="geometry" />
        </mxCell>
        <mxCell id="tvA-CXUHTDXtTp5dISmv-19" style="edgeStyle=orthogonalEdgeStyle;rounded=0;orthogonalLoop=1;jettySize=auto;html=1;exitX=1;exitY=0.5;exitDx=0;exitDy=0;entryX=0.583;entryY=-0.021;entryDx=0;entryDy=0;entryPerimeter=0;" edge="1" parent="WIyWlLk6GJQsqaUBKTNV-1" source="tvA-CXUHTDXtTp5dISmv-14" target="tvA-CXUHTDXtTp5dISmv-18">
          <mxGeometry relative="1" as="geometry" />
        </mxCell>
        <mxCell id="tvA-CXUHTDXtTp5dISmv-20" value="&lt;font face=&quot;Times New Roman&quot;&gt;&lt;span style=&quot;font-size: 14px;&quot;&gt;return BMR&lt;/span&gt;&lt;/font&gt;" style="ellipse;whiteSpace=wrap;html=1;" vertex="1" parent="WIyWlLk6GJQsqaUBKTNV-1">
          <mxGeometry x="327.5" y="490" width="132.5" height="50" as="geometry" />
        </mxCell>
        <mxCell id="tvA-CXUHTDXtTp5dISmv-21" value="" style="endArrow=none;html=1;rounded=0;" edge="1" parent="WIyWlLk6GJQsqaUBKTNV-1">
          <mxGeometry width="50" height="50" relative="1" as="geometry">
            <mxPoint x="160" y="460" as="sourcePoint" />
            <mxPoint x="630" y="460" as="targetPoint" />
          </mxGeometry>
        </mxCell>
        <mxCell id="tvA-CXUHTDXtTp5dISmv-47" style="edgeStyle=orthogonalEdgeStyle;rounded=0;orthogonalLoop=1;jettySize=auto;html=1;exitX=0.5;exitY=1;exitDx=0;exitDy=0;entryX=0.5;entryY=0;entryDx=0;entryDy=0;" edge="1" parent="WIyWlLk6GJQsqaUBKTNV-1" source="tvA-CXUHTDXtTp5dISmv-27" target="tvA-CXUHTDXtTp5dISmv-37">
          <mxGeometry relative="1" as="geometry" />
        </mxCell>
        <mxCell id="tvA-CXUHTDXtTp5dISmv-27" value="caloriesCalc (double BMR)" style="ellipse;whiteSpace=wrap;html=1;" vertex="1" parent="WIyWlLk6GJQsqaUBKTNV-1">
          <mxGeometry x="40" y="560" width="160" height="70" as="geometry" />
        </mxCell>
        <mxCell id="tvA-CXUHTDXtTp5dISmv-54" style="edgeStyle=orthogonalEdgeStyle;rounded=0;orthogonalLoop=1;jettySize=auto;html=1;exitX=1;exitY=0.5;exitDx=0;exitDy=0;" edge="1" parent="WIyWlLk6GJQsqaUBKTNV-1" source="tvA-CXUHTDXtTp5dISmv-28">
          <mxGeometry relative="1" as="geometry">
            <mxPoint x="460" y="690.0416666666667" as="targetPoint" />
          </mxGeometry>
        </mxCell>
        <mxCell id="tvA-CXUHTDXtTp5dISmv-28" value="BMR*1.2" style="rounded=0;whiteSpace=wrap;html=1;" vertex="1" parent="WIyWlLk6GJQsqaUBKTNV-1">
          <mxGeometry x="260" y="665" width="100" height="50" as="geometry" />
        </mxCell>
        <mxCell id="tvA-CXUHTDXtTp5dISmv-56" style="edgeStyle=orthogonalEdgeStyle;rounded=0;orthogonalLoop=1;jettySize=auto;html=1;exitX=1;exitY=0.5;exitDx=0;exitDy=0;" edge="1" parent="WIyWlLk6GJQsqaUBKTNV-1" source="tvA-CXUHTDXtTp5dISmv-30">
          <mxGeometry relative="1" as="geometry">
            <mxPoint x="460" y="900.0416666666667" as="targetPoint" />
          </mxGeometry>
        </mxCell>
        <mxCell id="tvA-CXUHTDXtTp5dISmv-30" value="BMR*1.55" style="rounded=0;whiteSpace=wrap;html=1;" vertex="1" parent="WIyWlLk6GJQsqaUBKTNV-1">
          <mxGeometry x="260" y="875" width="100" height="50" as="geometry" />
        </mxCell>
        <mxCell id="tvA-CXUHTDXtTp5dISmv-55" style="edgeStyle=orthogonalEdgeStyle;rounded=0;orthogonalLoop=1;jettySize=auto;html=1;exitX=1;exitY=0.5;exitDx=0;exitDy=0;" edge="1" parent="WIyWlLk6GJQsqaUBKTNV-1" source="tvA-CXUHTDXtTp5dISmv-31">
          <mxGeometry relative="1" as="geometry">
            <mxPoint x="460" y="790.0416666666667" as="targetPoint" />
          </mxGeometry>
        </mxCell>
        <mxCell id="tvA-CXUHTDXtTp5dISmv-31" value="BMR*1.375" style="rounded=0;whiteSpace=wrap;html=1;" vertex="1" parent="WIyWlLk6GJQsqaUBKTNV-1">
          <mxGeometry x="260" y="765" width="100" height="50" as="geometry" />
        </mxCell>
        <mxCell id="tvA-CXUHTDXtTp5dISmv-58" style="edgeStyle=orthogonalEdgeStyle;rounded=0;orthogonalLoop=1;jettySize=auto;html=1;exitX=1;exitY=0.5;exitDx=0;exitDy=0;" edge="1" parent="WIyWlLk6GJQsqaUBKTNV-1" source="tvA-CXUHTDXtTp5dISmv-32">
          <mxGeometry relative="1" as="geometry">
            <mxPoint x="460" y="1120.0416666666667" as="targetPoint" />
          </mxGeometry>
        </mxCell>
        <mxCell id="tvA-CXUHTDXtTp5dISmv-32" value="BMR*1.9" style="rounded=0;whiteSpace=wrap;html=1;" vertex="1" parent="WIyWlLk6GJQsqaUBKTNV-1">
          <mxGeometry x="260" y="1095" width="100" height="50" as="geometry" />
        </mxCell>
        <mxCell id="tvA-CXUHTDXtTp5dISmv-57" style="edgeStyle=orthogonalEdgeStyle;rounded=0;orthogonalLoop=1;jettySize=auto;html=1;exitX=1;exitY=0.5;exitDx=0;exitDy=0;" edge="1" parent="WIyWlLk6GJQsqaUBKTNV-1" source="tvA-CXUHTDXtTp5dISmv-33">
          <mxGeometry relative="1" as="geometry">
            <mxPoint x="460" y="1015.0416666666667" as="targetPoint" />
          </mxGeometry>
        </mxCell>
        <mxCell id="tvA-CXUHTDXtTp5dISmv-33" value="BMR*1.725" style="rounded=0;whiteSpace=wrap;html=1;" vertex="1" parent="WIyWlLk6GJQsqaUBKTNV-1">
          <mxGeometry x="260" y="990" width="100" height="50" as="geometry" />
        </mxCell>
        <mxCell id="tvA-CXUHTDXtTp5dISmv-35" value="" style="endArrow=classic;html=1;rounded=0;exitX=0.466;exitY=1.014;exitDx=0;exitDy=0;exitPerimeter=0;" edge="1" parent="WIyWlLk6GJQsqaUBKTNV-1" source="tvA-CXUHTDXtTp5dISmv-8">
          <mxGeometry width="50" height="50" relative="1" as="geometry">
            <mxPoint x="300" y="510" as="sourcePoint" />
            <mxPoint x="160" y="460" as="targetPoint" />
          </mxGeometry>
        </mxCell>
        <mxCell id="tvA-CXUHTDXtTp5dISmv-36" value="" style="endArrow=classic;html=1;rounded=0;entryX=0.5;entryY=0;entryDx=0;entryDy=0;" edge="1" parent="WIyWlLk6GJQsqaUBKTNV-1" target="tvA-CXUHTDXtTp5dISmv-20">
          <mxGeometry width="50" height="50" relative="1" as="geometry">
            <mxPoint x="394" y="460" as="sourcePoint" />
            <mxPoint x="400" y="460" as="targetPoint" />
          </mxGeometry>
        </mxCell>
        <mxCell id="tvA-CXUHTDXtTp5dISmv-42" style="edgeStyle=orthogonalEdgeStyle;rounded=0;orthogonalLoop=1;jettySize=auto;html=1;exitX=1;exitY=0.5;exitDx=0;exitDy=0;entryX=0;entryY=0.5;entryDx=0;entryDy=0;" edge="1" parent="WIyWlLk6GJQsqaUBKTNV-1" source="tvA-CXUHTDXtTp5dISmv-37" target="tvA-CXUHTDXtTp5dISmv-28">
          <mxGeometry relative="1" as="geometry" />
        </mxCell>
        <mxCell id="tvA-CXUHTDXtTp5dISmv-48" style="edgeStyle=orthogonalEdgeStyle;rounded=0;orthogonalLoop=1;jettySize=auto;html=1;exitX=0.5;exitY=1;exitDx=0;exitDy=0;entryX=0.5;entryY=0;entryDx=0;entryDy=0;" edge="1" parent="WIyWlLk6GJQsqaUBKTNV-1" source="tvA-CXUHTDXtTp5dISmv-37" target="tvA-CXUHTDXtTp5dISmv-41">
          <mxGeometry relative="1" as="geometry" />
        </mxCell>
        <mxCell id="tvA-CXUHTDXtTp5dISmv-37" value="Print&lt;span style=&quot;background-color: initial;&quot;&gt;&amp;nbsp;&quot;Little or no exercise: &quot;&amp;nbsp;&lt;/span&gt;" style="shape=parallelogram;perimeter=parallelogramPerimeter;whiteSpace=wrap;html=1;fixedSize=1;" vertex="1" parent="WIyWlLk6GJQsqaUBKTNV-1">
          <mxGeometry x="50" y="660" width="140" height="60" as="geometry" />
        </mxCell>
        <mxCell id="tvA-CXUHTDXtTp5dISmv-46" style="edgeStyle=orthogonalEdgeStyle;rounded=0;orthogonalLoop=1;jettySize=auto;html=1;exitX=1;exitY=0.5;exitDx=0;exitDy=0;entryX=0;entryY=0.5;entryDx=0;entryDy=0;" edge="1" parent="WIyWlLk6GJQsqaUBKTNV-1" source="tvA-CXUHTDXtTp5dISmv-38" target="tvA-CXUHTDXtTp5dISmv-32">
          <mxGeometry relative="1" as="geometry" />
        </mxCell>
        <mxCell id="tvA-CXUHTDXtTp5dISmv-38" value="Print &quot;Exercise 6-7 times/week:&amp;nbsp;&quot;" style="shape=parallelogram;perimeter=parallelogramPerimeter;whiteSpace=wrap;html=1;fixedSize=1;" vertex="1" parent="WIyWlLk6GJQsqaUBKTNV-1">
          <mxGeometry x="50" y="1090" width="140" height="60" as="geometry" />
        </mxCell>
        <mxCell id="tvA-CXUHTDXtTp5dISmv-45" style="edgeStyle=orthogonalEdgeStyle;rounded=0;orthogonalLoop=1;jettySize=auto;html=1;exitX=1;exitY=0.5;exitDx=0;exitDy=0;entryX=0;entryY=0.5;entryDx=0;entryDy=0;" edge="1" parent="WIyWlLk6GJQsqaUBKTNV-1" source="tvA-CXUHTDXtTp5dISmv-39" target="tvA-CXUHTDXtTp5dISmv-33">
          <mxGeometry relative="1" as="geometry" />
        </mxCell>
        <mxCell id="tvA-CXUHTDXtTp5dISmv-51" style="edgeStyle=orthogonalEdgeStyle;rounded=0;orthogonalLoop=1;jettySize=auto;html=1;exitX=0.5;exitY=1;exitDx=0;exitDy=0;entryX=0.5;entryY=0;entryDx=0;entryDy=0;" edge="1" parent="WIyWlLk6GJQsqaUBKTNV-1" source="tvA-CXUHTDXtTp5dISmv-39" target="tvA-CXUHTDXtTp5dISmv-38">
          <mxGeometry relative="1" as="geometry" />
        </mxCell>
        <mxCell id="tvA-CXUHTDXtTp5dISmv-39" value="Print&amp;nbsp;&lt;div&gt;&quot;Intense exercise 3-4 times/week:&amp;nbsp;&quot;&lt;/div&gt;" style="shape=parallelogram;perimeter=parallelogramPerimeter;whiteSpace=wrap;html=1;fixedSize=1;" vertex="1" parent="WIyWlLk6GJQsqaUBKTNV-1">
          <mxGeometry x="50" y="985" width="140" height="60" as="geometry" />
        </mxCell>
        <mxCell id="tvA-CXUHTDXtTp5dISmv-44" style="edgeStyle=orthogonalEdgeStyle;rounded=0;orthogonalLoop=1;jettySize=auto;html=1;exitX=1;exitY=0.5;exitDx=0;exitDy=0;entryX=0;entryY=0.5;entryDx=0;entryDy=0;" edge="1" parent="WIyWlLk6GJQsqaUBKTNV-1" source="tvA-CXUHTDXtTp5dISmv-40" target="tvA-CXUHTDXtTp5dISmv-30">
          <mxGeometry relative="1" as="geometry" />
        </mxCell>
        <mxCell id="tvA-CXUHTDXtTp5dISmv-50" style="edgeStyle=orthogonalEdgeStyle;rounded=0;orthogonalLoop=1;jettySize=auto;html=1;exitX=0.5;exitY=1;exitDx=0;exitDy=0;entryX=0.5;entryY=0;entryDx=0;entryDy=0;" edge="1" parent="WIyWlLk6GJQsqaUBKTNV-1" source="tvA-CXUHTDXtTp5dISmv-40" target="tvA-CXUHTDXtTp5dISmv-39">
          <mxGeometry relative="1" as="geometry" />
        </mxCell>
        <mxCell id="tvA-CXUHTDXtTp5dISmv-40" value="Print &quot;Exercise 4-5 times/week: &quot;" style="shape=parallelogram;perimeter=parallelogramPerimeter;whiteSpace=wrap;html=1;fixedSize=1;" vertex="1" parent="WIyWlLk6GJQsqaUBKTNV-1">
          <mxGeometry x="50" y="870" width="140" height="60" as="geometry" />
        </mxCell>
        <mxCell id="tvA-CXUHTDXtTp5dISmv-43" style="edgeStyle=orthogonalEdgeStyle;rounded=0;orthogonalLoop=1;jettySize=auto;html=1;exitX=1;exitY=0.5;exitDx=0;exitDy=0;entryX=0;entryY=0.5;entryDx=0;entryDy=0;" edge="1" parent="WIyWlLk6GJQsqaUBKTNV-1" source="tvA-CXUHTDXtTp5dISmv-41" target="tvA-CXUHTDXtTp5dISmv-31">
          <mxGeometry relative="1" as="geometry" />
        </mxCell>
        <mxCell id="tvA-CXUHTDXtTp5dISmv-49" style="edgeStyle=orthogonalEdgeStyle;rounded=0;orthogonalLoop=1;jettySize=auto;html=1;exitX=0.5;exitY=1;exitDx=0;exitDy=0;" edge="1" parent="WIyWlLk6GJQsqaUBKTNV-1" source="tvA-CXUHTDXtTp5dISmv-41" target="tvA-CXUHTDXtTp5dISmv-40">
          <mxGeometry relative="1" as="geometry" />
        </mxCell>
        <mxCell id="tvA-CXUHTDXtTp5dISmv-41" value="Print &quot;Exercise 1-3 times/week: &quot;" style="shape=parallelogram;perimeter=parallelogramPerimeter;whiteSpace=wrap;html=1;fixedSize=1;" vertex="1" parent="WIyWlLk6GJQsqaUBKTNV-1">
          <mxGeometry x="50" y="760" width="140" height="60" as="geometry" />
        </mxCell>
        <mxCell id="tvA-CXUHTDXtTp5dISmv-52" value="&lt;font face=&quot;Times New Roman&quot;&gt;&lt;span style=&quot;font-size: 14px;&quot;&gt;end&lt;/span&gt;&lt;/font&gt;" style="ellipse;whiteSpace=wrap;html=1;" vertex="1" parent="WIyWlLk6GJQsqaUBKTNV-1">
          <mxGeometry x="530" y="875" width="132.5" height="50" as="geometry" />
        </mxCell>
        <mxCell id="tvA-CXUHTDXtTp5dISmv-53" value="" style="endArrow=none;html=1;rounded=0;" edge="1" parent="WIyWlLk6GJQsqaUBKTNV-1">
          <mxGeometry width="50" height="50" relative="1" as="geometry">
            <mxPoint x="460" y="1120" as="sourcePoint" />
            <mxPoint x="460" y="690" as="targetPoint" />
          </mxGeometry>
        </mxCell>
        <mxCell id="tvA-CXUHTDXtTp5dISmv-59" value="" style="endArrow=classic;html=1;rounded=0;entryX=0;entryY=0.5;entryDx=0;entryDy=0;" edge="1" parent="WIyWlLk6GJQsqaUBKTNV-1" target="tvA-CXUHTDXtTp5dISmv-52">
          <mxGeometry width="50" height="50" relative="1" as="geometry">
            <mxPoint x="460" y="900" as="sourcePoint" />
            <mxPoint x="770" y="880" as="targetPoint" />
          </mxGeometry>
        </mxCell>
        <mxCell id="zIfIEQgkrR61vTBjUGeZ-0" value="&lt;font style=&quot;font-size: 14px;&quot;&gt;false&lt;/font&gt;" style="text;html=1;align=center;verticalAlign=middle;whiteSpace=wrap;rounded=0;" vertex="1" parent="WIyWlLk6GJQsqaUBKTNV-1">
          <mxGeometry x="240" y="260" width="45" height="20" as="geometry" />
        </mxCell>
        <mxCell id="zIfIEQgkrR61vTBjUGeZ-1" value="&lt;font style=&quot;font-size: 14px;&quot;&gt;false&lt;/font&gt;" style="text;html=1;align=center;verticalAlign=middle;whiteSpace=wrap;rounded=0;" vertex="1" parent="WIyWlLk6GJQsqaUBKTNV-1">
          <mxGeometry x="500" y="260" width="45" height="20" as="geometry" />
        </mxCell>
        <mxCell id="M-W2UPrGKA64aGrCvNjH-0" value="&lt;font style=&quot;font-size: 14px;&quot;&gt;true&lt;/font&gt;" style="text;html=1;align=center;verticalAlign=middle;whiteSpace=wrap;rounded=0;" vertex="1" parent="WIyWlLk6GJQsqaUBKTNV-1">
          <mxGeometry x="170" y="320" width="45" height="20" as="geometry" />
        </mxCell>
        <mxCell id="M-W2UPrGKA64aGrCvNjH-1" value="&lt;font style=&quot;font-size: 14px;&quot;&gt;true&lt;/font&gt;" style="text;html=1;align=center;verticalAlign=middle;whiteSpace=wrap;rounded=0;" vertex="1" parent="WIyWlLk6GJQsqaUBKTNV-1">
          <mxGeometry x="400" y="320" width="45" height="20" as="geometry" />
        </mxCell>
      </root>
    </mxGraphModel>
  </diagram>
  <diagram id="iuSQuCak7dYRJjAlTztY" name="Page-2">
    <mxGraphModel dx="2580" dy="1114" grid="1" gridSize="10" guides="1" tooltips="1" connect="1" arrows="1" fold="1" page="1" pageScale="1" pageWidth="1169" pageHeight="827" math="0" shadow="0">
      <root>
        <mxCell id="0" />
        <mxCell id="1" parent="0" />
        <mxCell id="SeTPEJ-m0SnOQQNNDsXC-1" style="edgeStyle=orthogonalEdgeStyle;rounded=0;orthogonalLoop=1;jettySize=auto;html=1;exitX=0.5;exitY=1;exitDx=0;exitDy=0;entryX=0.5;entryY=0;entryDx=0;entryDy=0;" edge="1" parent="1" source="SeTPEJ-m0SnOQQNNDsXC-2" target="SeTPEJ-m0SnOQQNNDsXC-4">
          <mxGeometry relative="1" as="geometry" />
        </mxCell>
        <mxCell id="SeTPEJ-m0SnOQQNNDsXC-2" value="&lt;font style=&quot;font-size: 14px;&quot; face=&quot;Times New Roman&quot;&gt;Start&lt;/font&gt;" style="ellipse;whiteSpace=wrap;html=1;" vertex="1" parent="1">
          <mxGeometry x="200" y="50" width="120" height="50" as="geometry" />
        </mxCell>
        <mxCell id="SeTPEJ-m0SnOQQNNDsXC-3" style="edgeStyle=orthogonalEdgeStyle;rounded=0;orthogonalLoop=1;jettySize=auto;html=1;exitX=0.5;exitY=1;exitDx=0;exitDy=0;entryX=0.5;entryY=0;entryDx=0;entryDy=0;" edge="1" parent="1" source="SeTPEJ-m0SnOQQNNDsXC-4" target="SeTPEJ-m0SnOQQNNDsXC-6">
          <mxGeometry relative="1" as="geometry" />
        </mxCell>
        <mxCell id="SeTPEJ-m0SnOQQNNDsXC-4" value="Read&lt;div&gt;age, gender, height, weight&lt;/div&gt;" style="shape=parallelogram;perimeter=parallelogramPerimeter;whiteSpace=wrap;html=1;fixedSize=1;" vertex="1" parent="1">
          <mxGeometry x="155" y="160" width="210" height="70" as="geometry" />
        </mxCell>
        <mxCell id="zOI0mLcuXd_eW5u9wdgJ-10" style="edgeStyle=orthogonalEdgeStyle;rounded=0;orthogonalLoop=1;jettySize=auto;html=1;exitX=0.5;exitY=1;exitDx=0;exitDy=0;entryX=0.5;entryY=0;entryDx=0;entryDy=0;" edge="1" parent="1" source="SeTPEJ-m0SnOQQNNDsXC-6" target="zOI0mLcuXd_eW5u9wdgJ-1">
          <mxGeometry relative="1" as="geometry" />
        </mxCell>
        <mxCell id="SeTPEJ-m0SnOQQNNDsXC-6" value="BMR = BMRcalc (age, gender, weight, height)" style="shape=process;whiteSpace=wrap;html=1;backgroundOutline=1;" vertex="1" parent="1">
          <mxGeometry x="140" y="280" width="240" height="70" as="geometry" />
        </mxCell>
        <mxCell id="zOI0mLcuXd_eW5u9wdgJ-11" style="edgeStyle=orthogonalEdgeStyle;rounded=0;orthogonalLoop=1;jettySize=auto;html=1;exitX=0.5;exitY=1;exitDx=0;exitDy=0;" edge="1" parent="1" source="zOI0mLcuXd_eW5u9wdgJ-1" target="zOI0mLcuXd_eW5u9wdgJ-2">
          <mxGeometry relative="1" as="geometry" />
        </mxCell>
        <mxCell id="zOI0mLcuXd_eW5u9wdgJ-13" style="edgeStyle=orthogonalEdgeStyle;rounded=0;orthogonalLoop=1;jettySize=auto;html=1;exitX=1;exitY=0.5;exitDx=0;exitDy=0;" edge="1" parent="1" source="zOI0mLcuXd_eW5u9wdgJ-1" target="zOI0mLcuXd_eW5u9wdgJ-4">
          <mxGeometry relative="1" as="geometry" />
        </mxCell>
        <mxCell id="zOI0mLcuXd_eW5u9wdgJ-1" value="BMR != 0" style="rhombus;whiteSpace=wrap;html=1;" vertex="1" parent="1">
          <mxGeometry x="207.5" y="400" width="105" height="80" as="geometry" />
        </mxCell>
        <mxCell id="zOI0mLcuXd_eW5u9wdgJ-12" style="edgeStyle=orthogonalEdgeStyle;rounded=0;orthogonalLoop=1;jettySize=auto;html=1;exitX=0.5;exitY=1;exitDx=0;exitDy=0;entryX=0.5;entryY=0;entryDx=0;entryDy=0;" edge="1" parent="1" source="zOI0mLcuXd_eW5u9wdgJ-2" target="zOI0mLcuXd_eW5u9wdgJ-3">
          <mxGeometry relative="1" as="geometry" />
        </mxCell>
        <mxCell id="zOI0mLcuXd_eW5u9wdgJ-2" value="Print&lt;div&gt;BMR&lt;/div&gt;" style="shape=parallelogram;perimeter=parallelogramPerimeter;whiteSpace=wrap;html=1;fixedSize=1;" vertex="1" parent="1">
          <mxGeometry x="182.5" y="520" width="155" height="60" as="geometry" />
        </mxCell>
        <mxCell id="zOI0mLcuXd_eW5u9wdgJ-14" style="edgeStyle=orthogonalEdgeStyle;rounded=0;orthogonalLoop=1;jettySize=auto;html=1;exitX=1;exitY=0.5;exitDx=0;exitDy=0;" edge="1" parent="1" source="zOI0mLcuXd_eW5u9wdgJ-3">
          <mxGeometry relative="1" as="geometry">
            <mxPoint x="400" y="440.0000000000001" as="targetPoint" />
          </mxGeometry>
        </mxCell>
        <mxCell id="zOI0mLcuXd_eW5u9wdgJ-3" value="caloriesCalc(BMR)" style="shape=process;whiteSpace=wrap;html=1;backgroundOutline=1;" vertex="1" parent="1">
          <mxGeometry x="170" y="640" width="180" height="60" as="geometry" />
        </mxCell>
        <mxCell id="zOI0mLcuXd_eW5u9wdgJ-15" style="edgeStyle=orthogonalEdgeStyle;rounded=0;orthogonalLoop=1;jettySize=auto;html=1;exitX=1;exitY=0.5;exitDx=0;exitDy=0;" edge="1" parent="1" source="zOI0mLcuXd_eW5u9wdgJ-4" target="zOI0mLcuXd_eW5u9wdgJ-5">
          <mxGeometry relative="1" as="geometry" />
        </mxCell>
        <mxCell id="zOI0mLcuXd_eW5u9wdgJ-4" value="Print&lt;div&gt;&quot;Do you want to calculate again? (y/n): &quot;&lt;/div&gt;" style="shape=parallelogram;perimeter=parallelogramPerimeter;whiteSpace=wrap;html=1;fixedSize=1;" vertex="1" parent="1">
          <mxGeometry x="460" y="405" width="250" height="70" as="geometry" />
        </mxCell>
        <mxCell id="zOI0mLcuXd_eW5u9wdgJ-16" style="edgeStyle=orthogonalEdgeStyle;rounded=0;orthogonalLoop=1;jettySize=auto;html=1;exitX=1;exitY=0.5;exitDx=0;exitDy=0;entryX=0;entryY=0.5;entryDx=0;entryDy=0;" edge="1" parent="1" source="zOI0mLcuXd_eW5u9wdgJ-5" target="zOI0mLcuXd_eW5u9wdgJ-6">
          <mxGeometry relative="1" as="geometry" />
        </mxCell>
        <mxCell id="zOI0mLcuXd_eW5u9wdgJ-5" value="Read&lt;div&gt;choice&lt;/div&gt;" style="shape=parallelogram;perimeter=parallelogramPerimeter;whiteSpace=wrap;html=1;fixedSize=1;" vertex="1" parent="1">
          <mxGeometry x="760" y="412.5" width="170" height="55" as="geometry" />
        </mxCell>
        <mxCell id="zOI0mLcuXd_eW5u9wdgJ-17" style="edgeStyle=orthogonalEdgeStyle;rounded=0;orthogonalLoop=1;jettySize=auto;html=1;exitX=0.5;exitY=0;exitDx=0;exitDy=0;" edge="1" parent="1" source="zOI0mLcuXd_eW5u9wdgJ-6">
          <mxGeometry relative="1" as="geometry">
            <mxPoint x="260" y="120" as="targetPoint" />
            <Array as="points">
              <mxPoint x="1040" y="120" />
            </Array>
          </mxGeometry>
        </mxCell>
        <mxCell id="zOI0mLcuXd_eW5u9wdgJ-18" style="edgeStyle=orthogonalEdgeStyle;rounded=0;orthogonalLoop=1;jettySize=auto;html=1;exitX=0.5;exitY=1;exitDx=0;exitDy=0;entryX=0.5;entryY=0;entryDx=0;entryDy=0;" edge="1" parent="1" source="zOI0mLcuXd_eW5u9wdgJ-6" target="zOI0mLcuXd_eW5u9wdgJ-8">
          <mxGeometry relative="1" as="geometry" />
        </mxCell>
        <mxCell id="zOI0mLcuXd_eW5u9wdgJ-6" value="choice == &#39;Y&#39; ||choice== &#39;y&#39;" style="rhombus;whiteSpace=wrap;html=1;" vertex="1" parent="1">
          <mxGeometry x="987.5" y="400" width="105" height="80" as="geometry" />
        </mxCell>
        <mxCell id="zOI0mLcuXd_eW5u9wdgJ-8" value="&lt;font style=&quot;font-size: 14px;&quot; face=&quot;Times New Roman&quot;&gt;End&lt;/font&gt;" style="ellipse;whiteSpace=wrap;html=1;" vertex="1" parent="1">
          <mxGeometry x="980" y="560" width="120" height="50" as="geometry" />
        </mxCell>
        <mxCell id="BypYWCng-EkzhFyvoIfM-1" value="&lt;font style=&quot;font-size: 14px;&quot;&gt;false&lt;/font&gt;" style="text;html=1;align=center;verticalAlign=middle;whiteSpace=wrap;rounded=0;" vertex="1" parent="1">
          <mxGeometry x="330" y="414" width="45" height="20" as="geometry" />
        </mxCell>
        <mxCell id="BypYWCng-EkzhFyvoIfM-2" value="&lt;font style=&quot;font-size: 14px;&quot;&gt;false&lt;/font&gt;" style="text;html=1;align=center;verticalAlign=middle;whiteSpace=wrap;rounded=0;" vertex="1" parent="1">
          <mxGeometry x="1040" y="490" width="45" height="20" as="geometry" />
        </mxCell>
        <mxCell id="BypYWCng-EkzhFyvoIfM-3" value="&lt;font style=&quot;font-size: 14px;&quot;&gt;true&lt;/font&gt;" style="text;html=1;align=center;verticalAlign=middle;whiteSpace=wrap;rounded=0;" vertex="1" parent="1">
          <mxGeometry x="260" y="490" width="45" height="20" as="geometry" />
        </mxCell>
        <mxCell id="BypYWCng-EkzhFyvoIfM-4" value="&lt;font style=&quot;font-size: 14px;&quot;&gt;true&lt;/font&gt;" style="text;html=1;align=center;verticalAlign=middle;whiteSpace=wrap;rounded=0;" vertex="1" parent="1">
          <mxGeometry x="1040" y="310" width="45" height="150" as="geometry" />
        </mxCell>
      </root>
    </mxGraphModel>
  </diagram>
  <diagram id="KHjIQw-O5OOcGGb41m2n" name="Page-3">
    <mxGraphModel dx="1290" dy="557" grid="1" gridSize="10" guides="1" tooltips="1" connect="1" arrows="1" fold="1" page="1" pageScale="1" pageWidth="1169" pageHeight="827" math="0" shadow="0">
      <root>
        <mxCell id="0" />
        <mxCell id="1" parent="0" />
      </root>
    </mxGraphModel>
  </diagram>
</mxfile>
